<?xml version="1.0" encoding="UTF-8"?>
<svg xmlns="http://www.w3.org/2000/svg" xmlns:xlink="http://www.w3.org/1999/xlink" width="512pt" height="512pt" viewBox="0 0 512 512" version="1.1">
<g id="surface34">
<path style=" stroke:none;fill-rule:nonzero;fill:rgb(100%,100%,100%);fill-opacity:1;" d="M 512 256 C 512 397.386719 397.386719 512 256 512 C 114.613281 512 0 397.386719 0 256 C 0 114.613281 114.613281 0 256 0 C 397.386719 0 512 114.613281 512 256 "/>
<path style=" stroke:none;fill-rule:nonzero;fill:rgb(25.1%,38.8%,84.7%);fill-opacity:1;" d="M 504 256 C 504 392.964844 392.964844 504 256 504 C 119.035156 504 8 392.964844 8 256 C 8 119.035156 119.035156 8 256 8 C 392.964844 8 504 119.035156 504 256 "/>
<path style=" stroke:none;fill-rule:nonzero;fill:rgb(100%,100%,100%);fill-opacity:1;" d="M 483.359375 325.144531 C 483.359375 412.523438 412.523438 483.359375 325.144531 483.359375 C 237.761719 483.359375 166.925781 412.523438 166.925781 325.144531 C 166.925781 237.761719 237.761719 166.925781 325.144531 166.925781 C 412.523438 166.925781 483.359375 237.761719 483.359375 325.144531 "/>
<path style=" stroke:none;fill-rule:nonzero;fill:rgb(79.6%,23.5%,20%);fill-opacity:1;" d="M 475.359375 325.144531 C 475.359375 408.105469 408.105469 475.359375 325.144531 475.359375 C 242.179688 475.359375 174.925781 408.105469 174.925781 325.144531 C 174.925781 242.179688 242.179688 174.925781 325.144531 174.925781 C 408.105469 174.925781 475.359375 242.179688 475.359375 325.144531 "/>
<path style=" stroke:none;fill-rule:nonzero;fill:rgb(100%,100%,100%);fill-opacity:1;" d="M 465.660156 367.875 C 465.660156 421.878906 421.878906 465.660156 367.875 465.660156 C 313.871094 465.660156 270.09375 421.878906 270.09375 367.875 C 270.09375 313.871094 313.871094 270.09375 367.875 270.09375 C 421.878906 270.09375 465.660156 313.871094 465.660156 367.875 "/>
<path style=" stroke:none;fill-rule:nonzero;fill:rgb(22%,59.6%,14.9%);fill-opacity:1;" d="M 457.660156 367.875 C 457.660156 417.460938 417.460938 457.660156 367.875 457.660156 C 318.289062 457.660156 278.09375 417.460938 278.09375 367.875 C 278.09375 318.289062 318.289062 278.09375 367.875 278.09375 C 417.460938 278.09375 457.660156 318.289062 457.660156 367.875 "/>
<path style=" stroke:none;fill-rule:nonzero;fill:rgb(100%,100%,100%);fill-opacity:1;" d="M 454.71875 394.285156 C 454.71875 427.664062 427.664062 454.71875 394.285156 454.71875 C 360.910156 454.71875 333.851562 427.664062 333.851562 394.285156 C 333.851562 360.910156 360.910156 333.851562 394.285156 333.851562 C 427.664062 333.851562 454.71875 360.910156 454.71875 394.285156 "/>
<path style=" stroke:none;fill-rule:nonzero;fill:rgb(58.4%,34.5%,69.8%);fill-opacity:1;" d="M 446.71875 394.285156 C 446.71875 423.246094 423.246094 446.71875 394.285156 446.71875 C 365.328125 446.71875 341.851562 423.246094 341.851562 394.285156 C 341.851562 365.328125 365.328125 341.851562 394.285156 341.851562 C 423.246094 341.851562 446.71875 365.328125 446.71875 394.285156 "/>
</g>
</svg>
